<svg xmlns="http://www.w3.org/2000/svg" width="512" height="512" viewBox="0 0 512 512"><path fill="#E6E7E8" d="M512 472c0 22.094-17.906 40-40 40H40c-22.094 0-40-17.906-40-40V40C0 17.906 17.906 0 40 0h432c22.094 0 40 17.906 40 40v432z"/><g fill-rule="evenodd" clip-rule="evenodd"><g fill="#F90"><path d="M309.693 293.906c-25.913 19.123-63.483 29.295-95.832 29.295-45.341 0-86.167-16.759-117.066-44.657-2.425-2.189-.261-5.185 2.654-3.487 33.334 19.397 74.556 31.077 117.133 31.077 28.721 0 60.293-5.958 89.343-18.282 4.382-1.857 8.054 2.89 3.768 6.054z"/><path d="M320.476 281.598c-3.314-4.245-21.91-2.01-30.262-1.013-2.53.301-2.922-1.903-.642-3.506 14.832-10.42 39.137-7.409 41.962-3.925 2.848 3.522-.744 27.887-14.646 39.518-2.14 1.789-4.172.834-3.225-1.527 3.126-7.813 10.131-25.302 6.813-29.547z"/></g><path d="M290.802 203.478v-10.123c.008-1.54 1.169-2.568 2.566-2.566l45.373-.004c1.452.002 2.615 1.056 2.619 2.558l-.004 8.682c-.011 1.456-1.237 3.356-3.415 6.373l-23.503 33.556c8.724-.206 17.952 1.1 25.878 5.556 1.789 1.003 2.269 2.494 2.408 3.952v10.803c0 1.485-1.628 3.209-3.339 2.315-13.966-7.317-32.499-8.117-47.941.087-1.58.841-3.23-.856-3.23-2.345v-10.27c0-1.641.031-4.452 1.688-6.957l27.228-39.064-23.707-.004c-1.449 0-2.61-1.033-2.621-2.549zM125.293 266.708H111.49c-1.314-.088-2.363-1.074-2.47-2.334l.01-70.846c0-1.418 1.193-2.551 2.665-2.551l12.855-.004c1.345.068 2.424 1.087 2.51 2.379v9.249h.258c3.351-8.945 9.664-13.119 18.168-13.119 8.634 0 14.044 4.174 17.911 13.119 3.348-8.945 10.951-13.119 19.069-13.119 5.799 0 12.113 2.385 15.977 7.753 4.382 5.962 3.482 14.608 3.482 22.212l-.011 44.708c0 1.412-1.194 2.551-2.663 2.551h-13.787c-1.385-.091-2.478-1.188-2.478-2.547l-.003-37.557c0-2.981.258-10.435-.386-13.268-1.031-4.77-4.123-6.112-8.117-6.112-3.35 0-6.83 2.237-8.248 5.813-1.418 3.579-1.288 9.54-1.288 13.567v37.553c0 1.412-1.193 2.551-2.662 2.551h-13.788c-1.385-.091-2.478-1.188-2.478-2.547l-.012-37.557c0-7.9 1.288-19.528-8.504-19.528-9.923 0-9.536 11.33-9.536 19.528l-.006 37.553c-.001 1.415-1.195 2.553-2.665 2.553zM380.418 189.484c20.488 0 31.566 17.593 31.566 39.953 0 21.617-12.238 38.764-31.566 38.764-20.1 0-31.053-17.593-31.053-39.51-.001-22.062 11.08-39.207 31.053-39.207zm.127 14.461c-10.179 0-10.822 13.863-10.822 22.511 0 8.646-.128 27.133 10.695 27.133 10.696 0 11.21-14.908 11.21-24.002 0-5.964-.259-13.121-2.061-18.786-1.549-4.918-4.642-6.856-9.022-6.856zM438.554 266.708h-13.751c-1.384-.091-2.478-1.188-2.478-2.547l-.021-70.872c.116-1.294 1.26-2.311 2.652-2.311l12.805-.004c1.205.061 2.199.885 2.452 1.985v10.835h.261c3.866-9.689 9.276-14.311 18.809-14.311 6.185 0 12.243 2.237 16.108 8.349C479 203.498 479 213.038 479 219.897v44.581c-.156 1.256-1.283 2.231-2.646 2.231h-13.839c-1.279-.084-2.309-1.024-2.459-2.231v-38.469c0-7.753.904-19.083-8.633-19.083-3.352 0-6.444 2.237-7.987 5.665-1.934 4.323-2.193 8.646-2.193 13.418v38.149c-.024 1.412-1.216 2.55-2.689 2.55zM254.633 232.875c0 5.379.127 9.86-2.583 14.642-2.197 3.887-5.682 6.274-9.556 6.274-5.296 0-8.395-4.035-8.395-10.009 0-11.756 10.546-13.896 20.534-13.896v2.989zm13.917 33.654c-.916.818-2.231.876-3.263.324-4.584-3.813-5.406-5.574-7.911-9.202-7.578 7.721-12.944 10.035-22.759 10.035-11.621 0-20.661-7.172-20.661-21.514 0-11.208 6.069-18.826 14.72-22.563 7.49-3.287 17.95-3.883 25.957-4.78v-1.793c0-3.288.257-7.173-1.679-10.011-1.679-2.541-4.907-3.586-7.749-3.586-5.263 0-9.944 2.697-11.094 8.29-.24 1.243-1.146 2.473-2.399 2.537l-13.378-1.449c-1.131-.255-2.387-1.161-2.062-2.886 3.076-16.231 17.733-21.135 30.87-21.135 6.716 0 15.497 1.793 20.791 6.874 6.716 6.274 6.068 14.642 6.068 23.756v21.506c0 6.468 2.688 9.305 5.212 12.792.879 1.256 1.079 2.749-.046 3.666-2.821 2.364-7.831 6.716-10.587 9.167l-.03-.028zM73.676 232.875c0 5.379.129 9.86-2.583 14.642-2.195 3.887-5.681 6.274-9.556 6.274-5.293 0-8.393-4.035-8.393-10.009 0-11.756 10.545-13.896 20.532-13.896v2.989zm13.916 33.654c-.914.818-2.232.876-3.261.324-4.586-3.813-5.407-5.574-7.913-9.202-7.577 7.721-12.945 10.035-22.758 10.035-11.623 0-20.661-7.172-20.661-21.514 0-11.208 6.069-18.826 14.72-22.563 7.489-3.287 17.95-3.883 25.956-4.78v-1.793c0-3.288.258-7.173-1.678-10.011-1.68-2.541-4.909-3.586-7.748-3.586-5.264 0-9.946 2.697-11.096 8.29-.239 1.243-1.145 2.473-2.397 2.537l-13.379-1.449c-1.13-.255-2.387-1.161-2.06-2.886 3.074-16.231 17.732-21.135 30.869-21.135 6.715 0 15.495 1.793 20.79 6.874 6.714 6.274 6.069 14.642 6.069 23.756v21.506c0 6.468 2.687 9.305 5.211 12.792.88 1.256 1.078 2.749-.046 3.666-2.818 2.364-7.83 6.716-10.586 9.167l-.032-.028z"/></g></svg>