<?xml version="1.0" encoding="UTF-8"?>
<svg width="512px" height="512px" viewBox="0 0 512 512" version="1.1" xmlns="http://www.w3.org/2000/svg" xmlns:xlink="http://www.w3.org/1999/xlink">
    <!-- Generator: Sketch 44.1 (41455) - http://www.bohemiancoding.com/sketch -->
    <title>ebay</title>
    <desc>Created with Sketch.</desc>
    <defs></defs>
    <g id="Page-1" stroke="none" stroke-width="1" fill="none" fill-rule="evenodd">
        <g id="ebay">
            <rect id="Rectangle" fill="#F2F2F2" x="0" y="0" width="512" height="512" rx="40"></rect>
            <path d="M84.2065558,202.04376 C51.9945619,202.04376 25.1523287,215.698565 25.1523287,256.894488 C25.1523287,289.530729 43.2017875,310.083073 85.0383049,310.083073 C134.281845,310.083073 137.438534,277.671278 137.438534,277.671278 L113.577716,277.671278 C113.577716,277.671278 108.461756,295.123784 83.5827432,295.123784 C63.3194668,295.123784 48.7453239,281.446505 48.7453239,262.27581 L139.933783,262.27581 L139.933783,250.245915 C139.933783,231.28007 127.88411,202.04376 84.2065558,202.04376 L84.2065558,202.04376 Z M83.3748051,217.418585 C102.663346,217.418585 115.813043,229.22552 115.813043,246.921627 L49.2730691,246.921627 C49.2730691,228.135045 66.4367734,217.418585 83.3748051,217.418585 L83.3748051,217.418585 Z" id="e" fill="#E53238" fill-rule="nonzero"></path>
            <path d="M139.916857,162.15232 L139.916857,289.394642 C139.916857,296.61732 139.400939,306.758787 139.400939,306.758787 L162.159133,306.758787 C162.159133,306.758787 162.976002,299.475042 162.976002,292.818407 C162.976002,292.818407 174.220019,310.394725 204.793336,310.394725 C236.98827,310.394725 258.857061,288.061054 258.857061,256.063416 C258.857061,226.296474 238.769869,202.355411 204.845312,202.355411 C173.077361,202.355411 163.205849,219.496264 163.205849,219.496264 L163.205849,162.15232 L139.916857,162.15232 Z M198.97108,218.09383 C220.833945,218.09383 234.736326,234.306633 234.736326,256.063416 C234.736326,279.393616 218.67954,294.656306 199.127039,294.656306 C175.792841,294.656306 163.205849,276.451914 163.205849,256.271184 C163.205849,237.466676 174.500526,218.09383 198.97108,218.09383 Z" id="b" fill="#0064D2" fill-rule="nonzero"></path>
            <path d="M315.416036,202.04376 C266.955527,202.04376 263.847562,228.556731 263.847562,232.793411 L287.968296,232.793411 C287.968296,232.793411 289.23318,217.3147 313.75254,217.3147 C329.685617,217.3147 342.032036,224.601578 342.032036,238.610912 L342.032036,243.597341 L313.75254,243.597341 C276.209503,243.597341 256.36181,254.571211 256.36181,276.840207 C256.36181,298.756099 274.700443,310.680406 299.482837,310.680406 C333.257392,310.680406 344.137389,292.033237 344.137389,292.033237 C344.137389,299.45006 344.709675,306.758787 344.709675,306.758787 L366.15277,306.758787 C366.15277,306.758787 365.321015,297.699391 365.321015,291.903381 L365.321015,241.805343 C365.321015,208.956746 338.803574,202.04376 315.416036,202.04376 L315.416036,202.04376 Z M342.032036,258.556631 L342.032036,265.205204 C342.032036,273.876756 336.676712,295.435435 305.149135,295.435435 C287.884741,295.435435 280.48256,286.826248 280.48256,276.840207 C280.48256,258.673629 305.410051,258.556631 342.032036,258.556631 L342.032036,258.556631 Z" id="a" fill="#F5AF02" fill-rule="nonzero"></path>
            <polygon id="y" fill="#86B817" fill-rule="nonzero" points="352.332359 206.203306 379.468196 206.203306 418.411893 284.160793 457.26649 206.203306 481.847667 206.203306 411.074682 344.992223 385.290437 344.992223 405.712868 306.302919"></polygon>
        </g>
    </g>
</svg>