<?xml version="1.0" encoding="UTF-8"?>
<svg width="400px" height="400px" viewBox="0 0 400 400" version="1.1" xmlns="http://www.w3.org/2000/svg" xmlns:xlink="http://www.w3.org/1999/xlink">
    <!-- Generator: Sketch 54.1 (76490) - https://sketchapp.com -->
    <title>walmart</title>
    <desc>Created with Sketch.</desc>
    <g id="Page-1" stroke="none" stroke-width="1" fill="none" fill-rule="evenodd">
        <g id="walmart">
            <rect id="Rectangle" fill="#FFFFFF" x="0" y="0" width="400" height="400"></rect>
            <g transform="translate(37.000000, 160.000000)" fill-rule="nonzero" id="Group">
                <g transform="translate(163.500000, 40.500000) scale(-1, 1) rotate(-180.000000) translate(-163.500000, -40.500000) ">
                    <g transform="translate(0.981000, 0.080270)" id="Shape">
                        <path d="M0,16.1854638 C0,16.1854638 8.089108,49.4720854 9.380104,54.8750043 C10.88692,61.1811827 13.6019356,63.5021611 21.429836,61.9368908 L26.480896,41.2994043 C27.7610792,36.1731989 28.6197376,32.5185665 29.442644,27.3039178 L29.5874091,27.3039178 C30.1656323,32.5697935 30.9889747,36.1885232 32.0424815,41.3173557 C32.0424815,41.3173557 34.0986139,50.6862097 35.1515539,55.6070692 C36.2072843,60.5261773 39.1453575,63.626507 46.8128099,61.9386422 L58.8481539,16.1889665 L49.1310219,16.1889665 L45.0222451,35.9687286 C43.9175519,41.7262962 42.9151007,46.22508 42.1422471,51.4922692 L42.0051469,51.4922692 C41.3027509,46.2776205 40.4093869,41.9570368 39.2862509,36.3474584 L35.0080009,16.1889665 L24.8836449,16.1889665 L20.3073889,35.8395665 C19.0108993,41.8107989 17.7982961,46.632707 17.0271865,51.7212584 L16.8875313,51.7212584 C16.0978481,46.9291232 15.0460417,40.8690097 13.9070789,35.0886746 C13.9070789,35.0886746 11.1882265,21.0336422 10.2343021,16.1889665 L0.00094612,16.19028 L0,16.1854638 Z M92.63256,16.1854638 L92.63256,61.9351395 L101.884044,61.9351395 L101.884044,52.2203935 L101.884044,16.1832746 L92.63256,16.1832746 L92.63256,16.1854638 Z M222.93116,16.1854638 L222.93116,49.9357557 C222.93116,54.5890962 223.803247,57.8492368 225.668935,59.8409611 C227.298921,61.5828989 229.983765,62.7108568 233.200835,62.7108568 C235.936081,62.7108568 238.627291,62.1899173 239.895615,61.7154762 L239.776399,54.4552492 C238.832634,54.6885073 237.746907,54.8751313 236.261978,54.8751313 C233.110526,54.8751313 232.053575,52.8482048 232.053575,48.6700935 L232.053575,35.7573799 L240.110855,35.7573799 L240.110855,27.0041259 L232.053575,27.0041259 L232.053575,16.1855908 L222.930711,16.1854638 L222.93116,16.1854638 Z M71.95744,26.7912097 C66.207908,26.7912097 61.64386,28.4123481 59.156044,29.8560746 L60.9766928,36.1167178 C63.2535284,34.6752681 66.8788248,33.4819849 70.3114528,33.4819849 C75.9947128,33.4673173 76.9238288,36.7090686 76.9238288,38.7881416 L76.9238288,39.2798335 C64.5401208,39.2611685 56.7178448,43.564427 56.7178448,52.3361578 C56.7178448,57.6917903 60.6998328,62.7107254 67.6239488,62.7107254 C71.8862848,62.7107254 75.4510208,61.0036395 77.5874208,58.2684227 L77.7969057,58.2684227 C77.7969057,58.2684227 79.2116385,64.2085686 87.0056617,61.9370222 C86.5962054,59.464727 86.4632341,56.8287681 86.4632341,53.6540059 L86.4632341,41.4322005 C86.4632341,33.6426276 83.1512473,26.7913411 71.9575141,26.7913411 L71.95744,26.7912097 Z M127.29892,26.7912097 C121.509712,26.7912097 118.9081,29.7374205 117.330652,32.2370368 L117.193552,32.2370368 L117.193552,27.5670584 L108.364552,27.5670584 L108.364552,61.9373286 L117.665304,61.9373286 L117.665304,41.7805881 C117.665304,40.8356465 117.772834,39.836413 118.101304,38.9671297 C118.87189,36.9377076 120.752097,34.5637946 123.754044,34.5637946 C127.506783,34.5637946 129.262904,37.7499405 129.262904,42.3481135 L129.262904,61.9369784 L138.553628,61.9369784 L138.553628,41.5363622 C138.553628,40.6343286 138.676767,39.5478341 138.941092,38.7502686 C139.704921,36.4418124 141.731885,34.5634443 144.522328,34.5634443 C148.326864,34.5634443 150.152832,37.69416 150.152832,43.1047849 L150.152832,61.9370659 L159.450096,61.9373286 L159.450096,41.6940714 C159.450096,31.0182714 154.05198,26.7913849 147.958444,26.7913849 C145.259779,26.7913849 143.129744,27.4709092 141.203932,28.6581941 C139.585151,29.6556762 138.136149,31.0729135 136.869482,32.9390659 L136.732382,32.9390659 C135.258702,29.2349578 131.801222,26.7913849 127.297342,26.7913849 L127.29892,26.7912097 Z M178.37196,26.7912097 C172.623736,26.7912097 168.06056,28.4123481 165.570564,29.8560746 L167.393742,36.1167178 C169.668354,34.6752681 173.295874,33.4819849 176.726758,33.4819849 C182.406094,33.4673173 183.33739,36.7090686 183.33739,38.7881416 L183.33739,39.2798335 C170.955426,39.2611685 163.132278,43.564427 163.132278,52.3361578 C163.132278,57.6917903 167.116315,62.7107254 174.04405,62.7107254 C178.302985,62.7107254 181.868942,61.0036395 184.001418,58.2684227 L184.211757,58.2684227 C184.211757,58.2684227 185.626228,64.2085686 193.421385,61.9370222 C193.011327,59.464727 192.879786,56.8287681 192.879786,53.6540059 L192.879786,41.4322005 C192.879786,33.6426276 189.566927,26.7913411 178.371886,26.7913411 L178.37196,26.7912097 Z M216.995456,26.7912097 C213.433946,26.7912097 209.382024,29.0998411 207.681188,34.0488097 L207.421463,34.0488097 L207.421463,27.5666205 L199.048955,27.5666205 L199.048955,61.9368908 L208.593431,61.9368908 L208.593431,44.3371232 C208.593431,43.3876719 208.650756,42.5598519 208.800361,41.8007286 C209.506245,38.1140465 212.314303,35.757253 216.344469,35.757253 C217.450819,35.757253 218.242638,35.8775883 219.099291,36.0018248 L219.099291,27.0038194 C218.380981,26.8580719 217.889696,26.7908857 216.99594,26.7908857 L216.995456,26.7912097 Z M77.222576,45.3704205 L77.222576,49.6581665 C77.222576,50.2924184 77.1676008,50.9468108 76.9926558,51.5189773 C76.2766566,53.9003335 73.8200582,55.91268 70.7491358,55.91268 C68.1888566,55.91268 66.1550038,54.4534978 66.1550038,51.3666097 C66.1550038,46.6449665 71.3307598,45.3397719 77.2228638,45.3704205 L77.222576,45.3704205 Z M183.637096,45.3704205 L183.637096,49.6581665 C183.637096,50.2924184 183.580974,50.9468108 183.407176,51.5189773 C182.691177,53.9003335 180.23545,55.91268 177.164528,55.91268 C174.603682,55.91268 172.569524,54.4534978 172.569524,51.3666097 C172.569524,46.6449665 177.74528,45.3397719 183.637384,45.3704205 L183.637096,45.3704205 Z" fill="#007DC6" transform="translate(120.055427, 39.447066) scale(-1, 1) rotate(-180.000000) translate(-120.055427, -39.447066) "></path>
                        <path d="M290.13184,0.415289189 C287.145153,0.415289189 284.77122,2.09019405 284.77122,4.12920486 L286.585067,24.7544319 C286.7853,25.9970595 288.301076,26.9555741 290.13354,26.9555741 C291.969624,26.9531659 293.480102,25.9954832 293.684542,24.7544319 L295.507022,4.12920486 C295.507022,2.09036919 293.126462,0.415464324 290.135502,0.415464324 L290.13184,0.415289189 Z M260.57322,16.9598676 C259.022673,16.9968123 257.261277,18.1756995 256.140844,20.1264859 C254.642399,22.7241341 254.907923,25.6270427 256.661166,26.6454535 L275.352922,35.3868859 C276.520618,35.823025 278.106524,34.9902837 279.024871,33.4003719 C279.025002,33.4001517 279.024744,33.3997151 279.024871,33.3994962 C279.94749,31.8017384 279.876074,30.0052459 278.904801,29.2083811 L262.022881,17.3175811 C261.584439,17.0625668 261.091236,16.9478139 260.574358,16.9601259 L260.57322,16.9598676 Z M319.69046,16.9598676 C319.173713,16.9475512 318.681251,17.0623085 318.243638,17.3173228 L301.359538,29.2081228 C300.394016,30.0049438 300.322424,31.8015238 301.240322,33.3992379 L301.241194,33.4001136 C302.162942,34.9900341 303.743703,35.8227579 304.911442,35.3866276 L323.611482,26.645633 C325.372007,25.6272222 325.62432,22.7244449 324.136034,20.1266655 C323.010543,18.1758352 321.246226,16.9970006 319.69581,16.9600471 L319.69046,16.9598676 Z M276.05122,44.171927 C275.80941,44.1686432 275.574977,44.2061572 275.355495,44.2890837 L256.663739,53.020008 C254.910539,54.0428848 254.645015,56.946888 256.143416,59.5472945 C257.637327,62.1398199 260.270549,63.3723334 262.024184,62.3556302 L278.907412,50.4740248 C279.87882,49.6674399 279.950499,47.8714291 279.027482,46.2752475 L279.035156,46.2787502 C278.288898,44.9785907 277.099142,44.1859729 276.051259,44.1716556 L276.05122,44.171927 Z M304.220744,44.171927 C303.174082,44.1862443 301.98668,44.9788622 301.238591,46.2790216 L301.245393,46.2755189 C300.326915,47.8717005 300.398027,49.6677114 301.363758,50.4742962 L318.247858,62.3559016 C319.998224,63.3726049 322.634018,62.1401308 324.13473,59.5475659 C325.623016,56.9470719 325.370703,54.0430686 323.610178,53.0202795 L304.915806,44.2893551 C304.696337,44.2064286 304.462454,44.1688928 304.22091,44.1721985 L304.220744,44.171927 Z M290.129224,52.7198351 C288.299855,52.7220243 286.787546,53.676467 286.587596,54.9158546 L284.773749,75.5402059 C284.773749,77.5826319 287.147638,79.2541216 290.134369,79.2541216 C293.126637,79.2541216 295.505017,77.5825881 295.505017,75.5402059 L293.68694,54.9158546 C293.482496,53.676467 291.972022,52.7221995 290.135938,52.7198351 L290.129137,52.7198351 L290.129224,52.7198351 Z" fill="#FFC220" transform="translate(290.136653, 39.834705) scale(-1, 1) rotate(-180.000000) translate(-290.136653, -39.834705) "></path>
                    </g>
                </g>
            </g>
        </g>
    </g>
</svg>