<?xml version="1.0" encoding="UTF-8"?>
<!DOCTYPE svg PUBLIC "-//W3C//DTD SVG 1.1//EN" "http://www.w3.org/Graphics/SVG/1.1/DTD/svg11.dtd">
<!-- Creator: CorelDRAW X7 -->
<svg xmlns="http://www.w3.org/2000/svg" xml:space="preserve" width="59.725mm" height="59.725mm" version="1.1" style="shape-rendering:geometricPrecision; text-rendering:geometricPrecision; image-rendering:optimizeQuality; fill-rule:evenodd; clip-rule:evenodd"
viewBox="0 0 5972 5972"
 xmlns:xlink="http://www.w3.org/1999/xlink">
 <defs>
  <style type="text/css">
   <![CDATA[
    .fil2 {fill:black}
    .fil0 {fill:#E6E7E8}
    .fil1 {fill:#FF9900}
   ]]>
  </style>
 </defs>
 <g id="Layer_x0020_1">
  <metadata id="CorelCorpID_0Corel-Layer"/>
  <path class="fil0" d="M6061 5373c0,258 -209,466 -467,466l-5039 0c-258,0 -467,-208 -467,-466l0 -5040c0,-258 209,-466 467,-466l5039 0c258,0 467,208 467,466l0 5040z"/>
  <g id="_1532674546688">
   <g>
    <path class="fil1" d="M3697 4177c-232,266 -568,407 -858,407 -405,0 -771,-233 -1047,-620 -22,-31 -3,-72 24,-49 298,270 667,432 1048,432 257,0 539,-83 799,-254 39,-26 71,40 34,84l0 0z"/>
    <path class="fil1" d="M3793 4006c-30,-59 -196,-28 -271,-14 -23,4 -26,-26 -5,-49 132,-145 350,-103 375,-54 25,49 -7,387 -131,549 -19,25 -38,12 -29,-21 28,-109 91,-352 61,-411l0 0z"/>
   </g>
   <path class="fil2" d="M3527 2920l0 -141c0,-21 11,-35 23,-35l406 0c13,0 23,15 23,35l0 121c0,20 -11,47 -30,88l-210 467c78,-3 160,15 231,77 16,14 21,35 22,55l0 150c0,21 -15,45 -30,33 -125,-102 -291,-113 -429,1 -14,11 -28,-12 -28,-33l0 -142c0,-24 0,-62 14,-97l244 -543 -212 0c-13,0 -23,-15 -24,-36l0 0zm-1480 879l-123 0c-12,-1 -22,-15 -23,-32l1 -985c0,-20 10,-35 23,-35l116 0c11,0 21,14 21,32l0 129 3 0c30,-124 86,-183 163,-183 77,0 125,59 160,183 30,-124 98,-183 171,-183 51,0 108,34 142,109 40,82 32,202 32,308l-1 622c0,19 -11,35 -23,35l-124 0c-12,-1 -22,-17 -22,-35l0 -522c0,-42 2,-145 -4,-185 -9,-66 -36,-85 -72,-85 -30,0 -61,31 -74,81 -12,50 -11,133 -11,189l0 522c0,19 -11,35 -24,35l-124 0c-12,-1 -22,-17 -22,-35l0 -522c0,-110 12,-271 -76,-271 -89,0 -85,157 -85,271l-1 522c0,20 -10,35 -23,35l0 0zm2282 -1074c183,0 282,246 282,556 0,301 -109,539 -282,539 -180,0 -278,-245 -278,-549 0,-307 99,-546 278,-546zm1 202c-91,0 -97,192 -97,313 0,120 -1,377 96,377 96,0 100,-207 100,-334 0,-83 -2,-182 -18,-261 -14,-68 -42,-95 -81,-95l0 0zm519 872l-123 0c-13,-1 -22,-17 -22,-35l0 -985c1,-18 11,-32 23,-32l115 0c11,0 20,12 22,27l0 151 2 0c35,-135 83,-200 168,-200 55,0 110,32 144,117 33,79 33,211 33,307l0 619c-1,18 -12,31 -24,31l-123 0c-12,-1 -21,-14 -22,-31l0 -534c0,-109 8,-266 -78,-266 -30,0 -57,31 -71,79 -17,60 -20,120 -20,187l0 530c0,20 -11,35 -24,35l0 0zm-1645 -470c0,75 1,137 -23,203 -20,54 -51,87 -86,87 -47,0 -75,-55 -75,-138 0,-164 95,-194 184,-194l0 42 0 0zm125 468c-9,11 -20,12 -30,4 -41,-53 -48,-77 -71,-128 -68,107 -115,140 -203,140 -104,0 -185,-100 -185,-299 0,-156 54,-262 132,-314 67,-45 160,-54 232,-67l0 -24c0,-46 2,-100 -15,-140 -15,-35 -44,-50 -70,-50 -47,0 -89,38 -99,116 -2,17 -10,34 -21,35l-120 -20c-10,-4 -21,-16 -18,-40 27,-225 159,-294 276,-294 60,0 138,25 186,96 60,87 54,203 54,330l0 299c0,89 24,129 47,178 7,17 9,38 0,50 -26,34 -71,94 -95,128l0 0 0 0zm-1743 -468c0,75 0,137 -24,203 -20,54 -51,87 -85,87 -48,0 -75,-55 -75,-138 0,-164 94,-194 184,-194l0 42 0 0zm124 468c-8,11 -20,12 -29,4 -42,-53 -49,-77 -72,-128 -67,107 -115,140 -203,140 -104,0 -184,-100 -184,-299 0,-156 53,-262 131,-314 67,-45 161,-54 233,-67l0 -24c0,-46 2,-100 -16,-140 -15,-35 -44,-50 -69,-50 -47,0 -89,38 -99,116 -2,17 -10,34 -22,35l-119 -20c-11,-4 -22,-16 -19,-40 27,-225 159,-294 276,-294 60,0 139,25 186,96 60,87 54,203 54,330l0 299c0,89 25,129 47,178 8,17 10,38 0,50 -26,34 -71,94 -95,128l0 0 0 0z"/>
  </g>
 </g>
</svg>
