<?xml version="1.0" encoding="UTF-8"?>
<!DOCTYPE svg PUBLIC "-//W3C//DTD SVG 1.1//EN" "http://www.w3.org/Graphics/SVG/1.1/DTD/svg11.dtd">
<!-- Creator: CorelDRAW X7 -->
<svg xmlns="http://www.w3.org/2000/svg" xml:space="preserve" width="59.725mm" height="59.725mm" version="1.1" style="shape-rendering:geometricPrecision; text-rendering:geometricPrecision; image-rendering:optimizeQuality; fill-rule:evenodd; clip-rule:evenodd"
viewBox="0 0 5972 5972"
 xmlns:xlink="http://www.w3.org/1999/xlink">
 <defs>
  <style type="text/css">
   <![CDATA[
    .fil1 {fill:#007DC6}
    .fil2 {fill:#FFC220}
    .fil0 {fill:white}
   ]]>
  </style>
 </defs>
 <g id="Layer_x0020_1">
  <metadata id="CorelCorpID_0Corel-Layer"/>
  <g id="Page-1">
   <g id="walmart">
    <rect id="Rectangle" class="fil0" x="-7" y="34" width="5973" height="5973"/>
    <g id="Group">
     <g>
      <g id="Shape">
       <path class="fil1" d="M560 2695c0,0 121,497 141,577 22,95 63,129 179,106l76 -308c19,-77 32,-131 44,-209l2 0c9,78 21,132 37,209 0,0 31,140 46,213 16,74 60,120 174,95l180 -683 -145 0 -61 295c-17,86 -32,153 -43,232l-2 0c-11,-78 -24,-142 -41,-226l-64 -301 -151 0 -68 293c-20,89 -38,161 -49,237l-2 0c-12,-71 -28,-162 -45,-248 0,0 -40,-210 -55,-282l-153 0 0 0zm1384 0l0 683 138 0 0 -145 0 -538 -138 0 0 0zm1945 0l0 504c0,69 13,118 41,148 24,26 64,42 112,42 41,0 81,-7 100,-14l-1 -109c-14,4 -31,6 -53,6 -47,0 -63,-30 -63,-92l0 -193 121 0 0 -131 -121 0 0 -161 -136 0 0 0zm-2254 158c-86,0 -154,24 -191,46l27 93c34,-21 88,-39 139,-39 85,0 99,48 99,79l0 8c-185,-1 -302,64 -302,194 0,80 60,155 163,155 64,0 117,-25 149,-66l3 0c0,0 21,89 138,55 -7,-37 -9,-76 -9,-124l0 -182c0,-117 -49,-219 -216,-219l0 0zm826 0c-86,0 -125,44 -149,81l-2 0 0 -69 -132 0 0 513 139 0 0 -301c0,-14 2,-29 7,-42 11,-30 39,-66 84,-66 56,0 83,48 83,116l0 293 138 0 0 -305c0,-13 2,-29 6,-41 11,-35 42,-63 83,-63 57,0 84,47 84,128l0 281 139 0 0 -302c0,-160 -80,-223 -171,-223 -41,0 -72,10 -101,28 -24,15 -46,36 -65,64l-2 0c-22,-55 -74,-92 -141,-92l0 0zm763 0c-86,0 -154,24 -191,46l27 93c34,-21 88,-39 139,-39 85,0 99,48 99,79l0 8c-185,-1 -302,64 -302,194 0,80 60,155 163,155 64,0 117,-25 149,-66l3 0c0,0 21,89 137,55 -6,-37 -8,-76 -8,-124l0 -182c0,-117 -49,-219 -216,-219l0 0zm576 0c-53,0 -113,35 -139,108l-3 0 0 -96 -126 0 0 513 143 0 0 -263c0,-14 1,-26 3,-38 11,-55 53,-90 113,-90 16,0 28,2 41,4l0 -135c-11,-2 -18,-3 -32,-3l0 0zm-2087 277l0 64c0,10 0,20 -3,28 -11,36 -47,66 -93,66 -38,0 -69,-22 -69,-68 0,-70 78,-90 165,-90l0 0zm1589 0l0 64c0,10 0,20 -3,28 -11,36 -47,66 -93,66 -39,0 -69,-22 -69,-68 0,-70 77,-90 165,-90l0 0z"/>
       <path class="fil2" d="M4892 2448c-44,0 -80,25 -80,55l28 308c3,19 25,33 53,33 27,0 49,-14 53,-33l27 -308c0,-30 -36,-55 -80,-55l-1 0zm-441 247c-23,0 -49,18 -66,47 -22,39 -18,82 8,97l279 131c17,6 41,-6 55,-30 0,0 0,0 0,0 13,-24 12,-51 -2,-62l-252 -178c-7,-4 -14,-5 -22,-5l0 0zm883 0c-8,0 -15,1 -22,5l-252 178c-14,11 -15,38 -2,62l0 0c14,24 38,36 55,30l279 -131c27,-15 30,-58 8,-97 -17,-29 -43,-47 -66,-47l0 0zm-652 406c-3,0 -7,1 -10,2l-279 130c-26,15 -30,59 -8,98 22,38 62,57 88,42l252 -178c14,-12 15,-39 2,-63l0 0c-11,-19 -29,-31 -45,-31l0 0zm421 0c-16,0 -34,12 -45,31l0 0c-13,24 -12,51 2,63l252 178c26,15 66,-4 88,-42 22,-39 19,-83 -8,-98l-279 -130c-3,-1 -7,-2 -10,-2l0 0zm-211 128c-27,0 -49,14 -52,32l-28 308c0,31 36,56 81,56 44,0 80,-25 80,-56l-27 -308c-3,-18 -26,-32 -53,-32l-1 0 0 0z"/>
      </g>
     </g>
    </g>
   </g>
  </g>
 </g>
</svg>
